<mxfile host="app.diagrams.net" modified="2023-01-18T16:09:07.210Z" agent="5.0 (Windows NT 10.0; Win64; x64) AppleWebKit/537.36 (KHTML, like Gecko) Chrome/107.0.0.0 Safari/537.36 OPR/93.0.0.0" etag="d-BZzWeMJTUm-mbL3xWA" version="20.7.3" type="github">
  <diagram id="kgpKYQtTHZ0yAKxKKP6v" name="Page-1">
    <mxGraphModel dx="1175" dy="674" grid="1" gridSize="10" guides="1" tooltips="1" connect="1" arrows="1" fold="1" page="1" pageScale="1" pageWidth="850" pageHeight="1100" math="0" shadow="0">
      <root>
        <mxCell id="0" />
        <mxCell id="1" parent="0" />
        <mxCell id="S8GTPxohOmlDsII6Q4f4-1" value="customer" style="shape=umlActor;verticalLabelPosition=bottom;verticalAlign=top;html=1;outlineConnect=0;" parent="1" vertex="1">
          <mxGeometry x="40" y="30" width="30" height="60" as="geometry" />
        </mxCell>
        <mxCell id="S8GTPxohOmlDsII6Q4f4-4" value="vendor&lt;span style=&quot;color: rgba(0, 0, 0, 0); font-family: monospace; font-size: 0px; text-align: start;&quot;&gt;%3CmxGraphModel%3E%3Croot%3E%3CmxCell%20id%3D%220%22%2F%3E%3CmxCell%20id%3D%221%22%20parent%3D%220%22%2F%3E%3CmxCell%20id%3D%222%22%20value%3D%22customer%22%20style%3D%22shape%3DumlActor%3BverticalLabelPosition%3Dbottom%3BverticalAlign%3Dtop%3Bhtml%3D1%3BoutlineConnect%3D0%3B%22%20vertex%3D%221%22%20parent%3D%221%22%3E%3CmxGeometry%20x%3D%2240%22%20y%3D%2270%22%20width%3D%2230%22%20height%3D%2260%22%20as%3D%22geometry%22%2F%3E%3C%2FmxCell%3E%3C%2Froot%3E%3C%2FmxGraphModel%3E&lt;/span&gt;" style="shape=umlActor;verticalLabelPosition=bottom;verticalAlign=top;html=1;outlineConnect=0;" parent="1" vertex="1">
          <mxGeometry x="160" y="30" width="30" height="60" as="geometry" />
        </mxCell>
        <mxCell id="S8GTPxohOmlDsII6Q4f4-5" value="rider" style="shape=umlActor;verticalLabelPosition=bottom;verticalAlign=top;html=1;outlineConnect=0;" parent="1" vertex="1">
          <mxGeometry x="270" y="34.480000000000004" width="30" height="60" as="geometry" />
        </mxCell>
        <mxCell id="S8GTPxohOmlDsII6Q4f4-9" value="" style="html=1;points=[];perimeter=orthogonalPerimeter;" parent="1" vertex="1">
          <mxGeometry x="825" y="140" width="10" height="1060" as="geometry" />
        </mxCell>
        <mxCell id="S8GTPxohOmlDsII6Q4f4-14" value="" style="endArrow=none;html=1;rounded=0;" parent="1" edge="1">
          <mxGeometry width="50" height="50" relative="1" as="geometry">
            <mxPoint x="330" y="104.48" as="sourcePoint" />
            <mxPoint x="330" y="34.480000000000004" as="targetPoint" />
          </mxGeometry>
        </mxCell>
        <mxCell id="S8GTPxohOmlDsII6Q4f4-15" value="" style="endArrow=none;html=1;rounded=0;" parent="1" edge="1">
          <mxGeometry width="50" height="50" relative="1" as="geometry">
            <mxPoint x="400" y="68.48" as="sourcePoint" />
            <mxPoint x="330" y="68.48" as="targetPoint" />
          </mxGeometry>
        </mxCell>
        <mxCell id="S8GTPxohOmlDsII6Q4f4-16" value=": view transaction&lt;br&gt;user interface" style="ellipse;whiteSpace=wrap;html=1;" parent="1" vertex="1">
          <mxGeometry x="395" y="24.48" width="120" height="80" as="geometry" />
        </mxCell>
        <mxCell id="S8GTPxohOmlDsII6Q4f4-17" value=": view transaction&lt;br&gt;interface controller" style="ellipse;whiteSpace=wrap;html=1;" parent="1" vertex="1">
          <mxGeometry x="580" y="24.48" width="120" height="80" as="geometry" />
        </mxCell>
        <mxCell id="S8GTPxohOmlDsII6Q4f4-18" value="customer&lt;span style=&quot;color: rgba(0, 0, 0, 0); font-family: monospace; font-size: 0px; text-align: start;&quot;&gt;%3CmxGraphModel%3E%3Croot%3E%3CmxCell%20id%3D%220%22%2F%3E%3CmxCell%20id%3D%221%22%20parent%3D%220%22%2F%3E%3CmxCell%20id%3D%222%22%20value%3D%22%3A%20view%20transaction%26lt%3Bbr%26gt%3Buser%20interface%22%20style%3D%22ellipse%3BwhiteSpace%3Dwrap%3Bhtml%3D1%3B%22%20vertex%3D%221%22%20parent%3D%221%22%3E%3CmxGeometry%20x%3D%22290%22%20y%3D%2220%22%20width%3D%22120%22%20height%3D%2280%22%20as%3D%22geometry%22%2F%3E%3C%2FmxCell%3E%3C%2Froot%3E%3C%2FmxGraphModel%3E&lt;/span&gt;" style="rounded=1;whiteSpace=wrap;html=1;" parent="1" vertex="1">
          <mxGeometry x="770" y="34.480000000000004" width="120" height="60" as="geometry" />
        </mxCell>
        <mxCell id="S8GTPxohOmlDsII6Q4f4-19" value="vendor" style="rounded=1;whiteSpace=wrap;html=1;" parent="1" vertex="1">
          <mxGeometry x="920" y="34.480000000000004" width="120" height="60" as="geometry" />
        </mxCell>
        <mxCell id="S8GTPxohOmlDsII6Q4f4-20" value="rider" style="rounded=1;whiteSpace=wrap;html=1;" parent="1" vertex="1">
          <mxGeometry x="1070" y="34.480000000000004" width="120" height="60" as="geometry" />
        </mxCell>
        <mxCell id="S8GTPxohOmlDsII6Q4f4-21" value="" style="endArrow=none;dashed=1;html=1;dashPattern=1 3;strokeWidth=2;rounded=0;entryX=0.5;entryY=1;entryDx=0;entryDy=0;exitX=0.46;exitY=0.012;exitDx=0;exitDy=0;exitPerimeter=0;" parent="1" target="S8GTPxohOmlDsII6Q4f4-18" edge="1">
          <mxGeometry width="50" height="50" relative="1" as="geometry">
            <mxPoint x="829.5999999999999" y="139.99999999999997" as="sourcePoint" />
            <mxPoint x="830" y="114.48" as="targetPoint" />
          </mxGeometry>
        </mxCell>
        <mxCell id="S8GTPxohOmlDsII6Q4f4-23" value="" style="html=1;points=[];perimeter=orthogonalPerimeter;" parent="1" vertex="1">
          <mxGeometry x="975" y="140" width="10" height="1060" as="geometry" />
        </mxCell>
        <mxCell id="S8GTPxohOmlDsII6Q4f4-24" value="" style="endArrow=none;dashed=1;html=1;dashPattern=1 3;strokeWidth=2;rounded=0;entryX=0.5;entryY=1;entryDx=0;entryDy=0;exitX=0.46;exitY=0.012;exitDx=0;exitDy=0;exitPerimeter=0;" parent="1" edge="1">
          <mxGeometry width="50" height="50" relative="1" as="geometry">
            <mxPoint x="979.5999999999999" y="139.99999999999997" as="sourcePoint" />
            <mxPoint x="980" y="94.48" as="targetPoint" />
          </mxGeometry>
        </mxCell>
        <mxCell id="S8GTPxohOmlDsII6Q4f4-25" value="" style="html=1;points=[];perimeter=orthogonalPerimeter;" parent="1" vertex="1">
          <mxGeometry x="1125" y="140" width="10" height="1060" as="geometry" />
        </mxCell>
        <mxCell id="S8GTPxohOmlDsII6Q4f4-26" value="" style="endArrow=none;dashed=1;html=1;dashPattern=1 3;strokeWidth=2;rounded=0;entryX=0.5;entryY=1;entryDx=0;entryDy=0;exitX=0.46;exitY=0.012;exitDx=0;exitDy=0;exitPerimeter=0;" parent="1" edge="1">
          <mxGeometry width="50" height="50" relative="1" as="geometry">
            <mxPoint x="1129.6" y="139.99999999999997" as="sourcePoint" />
            <mxPoint x="1130" y="94.48" as="targetPoint" />
          </mxGeometry>
        </mxCell>
        <mxCell id="S8GTPxohOmlDsII6Q4f4-27" value="" style="html=1;points=[];perimeter=orthogonalPerimeter;" parent="1" vertex="1">
          <mxGeometry x="450" y="140" width="10" height="1060" as="geometry" />
        </mxCell>
        <mxCell id="S8GTPxohOmlDsII6Q4f4-28" value="" style="endArrow=none;dashed=1;html=1;dashPattern=1 3;strokeWidth=2;rounded=0;entryX=0.5;entryY=1;entryDx=0;entryDy=0;exitX=0.49;exitY=0;exitDx=0;exitDy=0;exitPerimeter=0;" parent="1" source="S8GTPxohOmlDsII6Q4f4-27" edge="1">
          <mxGeometry width="50" height="50" relative="1" as="geometry">
            <mxPoint x="454.4999999999999" y="149.99999999999997" as="sourcePoint" />
            <mxPoint x="454.9" y="104.48" as="targetPoint" />
          </mxGeometry>
        </mxCell>
        <mxCell id="S8GTPxohOmlDsII6Q4f4-29" value="" style="html=1;points=[];perimeter=orthogonalPerimeter;" parent="1" vertex="1">
          <mxGeometry x="635" y="140" width="10" height="1060" as="geometry" />
        </mxCell>
        <mxCell id="S8GTPxohOmlDsII6Q4f4-30" value="" style="endArrow=none;dashed=1;html=1;dashPattern=1 3;strokeWidth=2;rounded=0;entryX=0.5;entryY=1;entryDx=0;entryDy=0;exitX=0.418;exitY=-0.009;exitDx=0;exitDy=0;exitPerimeter=0;" parent="1" source="S8GTPxohOmlDsII6Q4f4-29" edge="1">
          <mxGeometry width="50" height="50" relative="1" as="geometry">
            <mxPoint x="639.4999999999999" y="149.99999999999997" as="sourcePoint" />
            <mxPoint x="639.9" y="104.48" as="targetPoint" />
          </mxGeometry>
        </mxCell>
        <mxCell id="S8GTPxohOmlDsII6Q4f4-31" value="" style="html=1;points=[];perimeter=orthogonalPerimeter;" parent="1" vertex="1">
          <mxGeometry x="50" y="160" width="10" height="1040" as="geometry" />
        </mxCell>
        <mxCell id="S8GTPxohOmlDsII6Q4f4-32" value="" style="endArrow=none;dashed=1;html=1;dashPattern=1 3;strokeWidth=2;rounded=0;entryX=0.5;entryY=1;entryDx=0;entryDy=0;exitX=0.46;exitY=0.012;exitDx=0;exitDy=0;exitPerimeter=0;" parent="1" source="S8GTPxohOmlDsII6Q4f4-31" edge="1">
          <mxGeometry width="50" height="50" relative="1" as="geometry">
            <mxPoint x="55" y="170" as="sourcePoint" />
            <mxPoint x="55" y="120" as="targetPoint" />
          </mxGeometry>
        </mxCell>
        <mxCell id="S8GTPxohOmlDsII6Q4f4-36" value="" style="html=1;points=[];perimeter=orthogonalPerimeter;" parent="1" vertex="1">
          <mxGeometry x="170" y="160" width="10" height="1040" as="geometry" />
        </mxCell>
        <mxCell id="S8GTPxohOmlDsII6Q4f4-37" value="" style="endArrow=none;dashed=1;html=1;dashPattern=1 3;strokeWidth=2;rounded=0;entryX=0.5;entryY=1;entryDx=0;entryDy=0;exitX=0.46;exitY=0.012;exitDx=0;exitDy=0;exitPerimeter=0;" parent="1" source="S8GTPxohOmlDsII6Q4f4-36" edge="1">
          <mxGeometry width="50" height="50" relative="1" as="geometry">
            <mxPoint x="175" y="170" as="sourcePoint" />
            <mxPoint x="175" y="120" as="targetPoint" />
          </mxGeometry>
        </mxCell>
        <mxCell id="S8GTPxohOmlDsII6Q4f4-38" value="" style="html=1;points=[];perimeter=orthogonalPerimeter;" parent="1" vertex="1">
          <mxGeometry x="280" y="160" width="10" height="1040" as="geometry" />
        </mxCell>
        <mxCell id="S8GTPxohOmlDsII6Q4f4-39" value="" style="endArrow=none;dashed=1;html=1;dashPattern=1 3;strokeWidth=2;rounded=0;entryX=0.5;entryY=1;entryDx=0;entryDy=0;exitX=0.46;exitY=0.012;exitDx=0;exitDy=0;exitPerimeter=0;" parent="1" source="S8GTPxohOmlDsII6Q4f4-38" edge="1">
          <mxGeometry width="50" height="50" relative="1" as="geometry">
            <mxPoint x="285" y="170" as="sourcePoint" />
            <mxPoint x="285" y="120" as="targetPoint" />
          </mxGeometry>
        </mxCell>
        <mxCell id="S8GTPxohOmlDsII6Q4f4-98" value="" style="edgeStyle=elbowEdgeStyle;fontSize=12;html=1;endArrow=blockThin;endFill=1;rounded=0;entryX=-0.4;entryY=0.13;entryDx=0;entryDy=0;entryPerimeter=0;" parent="1" edge="1">
          <mxGeometry width="160" relative="1" as="geometry">
            <mxPoint x="60" y="540" as="sourcePoint" />
            <mxPoint x="446" y="539.8" as="targetPoint" />
          </mxGeometry>
        </mxCell>
        <mxCell id="S8GTPxohOmlDsII6Q4f4-99" value="create paymentMenthod()" style="text;html=1;strokeColor=none;fillColor=none;align=center;verticalAlign=middle;whiteSpace=wrap;rounded=0;" parent="1" vertex="1">
          <mxGeometry x="85" y="510" width="60" height="30" as="geometry" />
        </mxCell>
        <mxCell id="S8GTPxohOmlDsII6Q4f4-100" value="" style="edgeStyle=elbowEdgeStyle;fontSize=12;html=1;endArrow=blockThin;endFill=1;rounded=0;entryX=-0.02;entryY=0.132;entryDx=0;entryDy=0;entryPerimeter=0;" parent="1" edge="1">
          <mxGeometry width="160" relative="1" as="geometry">
            <mxPoint x="460" y="540" as="sourcePoint" />
            <mxPoint x="634.8" y="540.72" as="targetPoint" />
          </mxGeometry>
        </mxCell>
        <mxCell id="S8GTPxohOmlDsII6Q4f4-101" value="send paymentMenthod()" style="text;html=1;strokeColor=none;fillColor=none;align=center;verticalAlign=middle;whiteSpace=wrap;rounded=0;" parent="1" vertex="1">
          <mxGeometry x="488" y="505" width="60" height="30" as="geometry" />
        </mxCell>
        <mxCell id="S8GTPxohOmlDsII6Q4f4-102" value="" style="edgeStyle=elbowEdgeStyle;fontSize=12;html=1;endArrow=blockThin;endFill=1;rounded=0;entryX=-0.02;entryY=0.132;entryDx=0;entryDy=0;entryPerimeter=0;" parent="1" edge="1">
          <mxGeometry width="160" relative="1" as="geometry">
            <mxPoint x="645" y="540" as="sourcePoint" />
            <mxPoint x="819.8" y="540.72" as="targetPoint" />
          </mxGeometry>
        </mxCell>
        <mxCell id="S8GTPxohOmlDsII6Q4f4-103" value="add paymentMenthod()" style="text;html=1;strokeColor=none;fillColor=none;align=center;verticalAlign=middle;whiteSpace=wrap;rounded=0;" parent="1" vertex="1">
          <mxGeometry x="670" y="505" width="60" height="30" as="geometry" />
        </mxCell>
        <mxCell id="S8GTPxohOmlDsII6Q4f4-122" value="" style="endArrow=classic;html=1;rounded=0;entryX=1.26;entryY=0.22;entryDx=0;entryDy=0;entryPerimeter=0;" parent="1" edge="1">
          <mxGeometry width="50" height="50" relative="1" as="geometry">
            <mxPoint x="822.4000000000001" y="591" as="sourcePoint" />
            <mxPoint x="650" y="591.2" as="targetPoint" />
          </mxGeometry>
        </mxCell>
        <mxCell id="S8GTPxohOmlDsII6Q4f4-123" value="get paymentMenthod()" style="text;html=1;strokeColor=none;fillColor=none;align=center;verticalAlign=middle;whiteSpace=wrap;rounded=0;" parent="1" vertex="1">
          <mxGeometry x="740" y="560" width="60" height="30" as="geometry" />
        </mxCell>
        <mxCell id="S8GTPxohOmlDsII6Q4f4-124" value="" style="endArrow=classic;html=1;rounded=0;entryX=1.26;entryY=0.22;entryDx=0;entryDy=0;entryPerimeter=0;" parent="1" edge="1">
          <mxGeometry width="50" height="50" relative="1" as="geometry">
            <mxPoint x="632.4000000000001" y="589" as="sourcePoint" />
            <mxPoint x="460" y="589.2" as="targetPoint" />
          </mxGeometry>
        </mxCell>
        <mxCell id="S8GTPxohOmlDsII6Q4f4-125" value="return paymentMenthod()" style="text;html=1;strokeColor=none;fillColor=none;align=center;verticalAlign=middle;whiteSpace=wrap;rounded=0;" parent="1" vertex="1">
          <mxGeometry x="548" y="560" width="60" height="30" as="geometry" />
        </mxCell>
        <mxCell id="S8GTPxohOmlDsII6Q4f4-126" value="" style="endArrow=classic;html=1;rounded=0;" parent="1" edge="1">
          <mxGeometry width="50" height="50" relative="1" as="geometry">
            <mxPoint x="450" y="591" as="sourcePoint" />
            <mxPoint x="70" y="590" as="targetPoint" />
          </mxGeometry>
        </mxCell>
        <mxCell id="S8GTPxohOmlDsII6Q4f4-127" value="view paymentMenthod()" style="text;html=1;strokeColor=none;fillColor=none;align=center;verticalAlign=middle;whiteSpace=wrap;rounded=0;" parent="1" vertex="1">
          <mxGeometry x="85" y="550" width="60" height="30" as="geometry" />
        </mxCell>
        <mxCell id="S8GTPxohOmlDsII6Q4f4-158" value="" style="edgeStyle=elbowEdgeStyle;fontSize=12;html=1;endArrow=blockThin;endFill=1;rounded=0;entryX=-0.4;entryY=0.13;entryDx=0;entryDy=0;entryPerimeter=0;" parent="1" edge="1">
          <mxGeometry width="160" relative="1" as="geometry">
            <mxPoint x="60" y="265" as="sourcePoint" />
            <mxPoint x="446" y="264.79999999999995" as="targetPoint" />
          </mxGeometry>
        </mxCell>
        <mxCell id="S8GTPxohOmlDsII6Q4f4-159" value="create feedback()" style="text;html=1;strokeColor=none;fillColor=none;align=center;verticalAlign=middle;whiteSpace=wrap;rounded=0;" parent="1" vertex="1">
          <mxGeometry x="85" y="235" width="60" height="30" as="geometry" />
        </mxCell>
        <mxCell id="S8GTPxohOmlDsII6Q4f4-160" value="" style="edgeStyle=elbowEdgeStyle;fontSize=12;html=1;endArrow=blockThin;endFill=1;rounded=0;entryX=-0.02;entryY=0.132;entryDx=0;entryDy=0;entryPerimeter=0;" parent="1" edge="1">
          <mxGeometry width="160" relative="1" as="geometry">
            <mxPoint x="460" y="265" as="sourcePoint" />
            <mxPoint x="634.8" y="265.72" as="targetPoint" />
          </mxGeometry>
        </mxCell>
        <mxCell id="S8GTPxohOmlDsII6Q4f4-161" value="send feedback()" style="text;html=1;strokeColor=none;fillColor=none;align=center;verticalAlign=middle;whiteSpace=wrap;rounded=0;" parent="1" vertex="1">
          <mxGeometry x="488" y="230" width="60" height="30" as="geometry" />
        </mxCell>
        <mxCell id="S8GTPxohOmlDsII6Q4f4-162" value="" style="edgeStyle=elbowEdgeStyle;fontSize=12;html=1;endArrow=blockThin;endFill=1;rounded=0;entryX=-0.02;entryY=0.132;entryDx=0;entryDy=0;entryPerimeter=0;" parent="1" edge="1">
          <mxGeometry width="160" relative="1" as="geometry">
            <mxPoint x="645" y="265" as="sourcePoint" />
            <mxPoint x="819.8" y="265.72" as="targetPoint" />
          </mxGeometry>
        </mxCell>
        <mxCell id="S8GTPxohOmlDsII6Q4f4-163" value="add feedback()" style="text;html=1;strokeColor=none;fillColor=none;align=center;verticalAlign=middle;whiteSpace=wrap;rounded=0;" parent="1" vertex="1">
          <mxGeometry x="670" y="230" width="60" height="30" as="geometry" />
        </mxCell>
        <mxCell id="S8GTPxohOmlDsII6Q4f4-165" value="" style="endArrow=classic;html=1;rounded=0;entryX=1.26;entryY=0.22;entryDx=0;entryDy=0;entryPerimeter=0;" parent="1" edge="1">
          <mxGeometry width="50" height="50" relative="1" as="geometry">
            <mxPoint x="820.0000000000001" y="306" as="sourcePoint" />
            <mxPoint x="647.6" y="306.20000000000005" as="targetPoint" />
          </mxGeometry>
        </mxCell>
        <mxCell id="S8GTPxohOmlDsII6Q4f4-166" value="get feedback()" style="text;html=1;strokeColor=none;fillColor=none;align=center;verticalAlign=middle;whiteSpace=wrap;rounded=0;" parent="1" vertex="1">
          <mxGeometry x="737.6" y="275" width="60" height="30" as="geometry" />
        </mxCell>
        <mxCell id="S8GTPxohOmlDsII6Q4f4-167" value="" style="endArrow=classic;html=1;rounded=0;entryX=1.26;entryY=0.22;entryDx=0;entryDy=0;entryPerimeter=0;" parent="1" edge="1">
          <mxGeometry width="50" height="50" relative="1" as="geometry">
            <mxPoint x="630.0000000000001" y="304" as="sourcePoint" />
            <mxPoint x="457.6" y="304.20000000000005" as="targetPoint" />
          </mxGeometry>
        </mxCell>
        <mxCell id="S8GTPxohOmlDsII6Q4f4-168" value="return feedback()" style="text;html=1;strokeColor=none;fillColor=none;align=center;verticalAlign=middle;whiteSpace=wrap;rounded=0;" parent="1" vertex="1">
          <mxGeometry x="545.6" y="275" width="60" height="30" as="geometry" />
        </mxCell>
        <mxCell id="S8GTPxohOmlDsII6Q4f4-169" value="" style="endArrow=classic;html=1;rounded=0;" parent="1" edge="1">
          <mxGeometry width="50" height="50" relative="1" as="geometry">
            <mxPoint x="447.6" y="306" as="sourcePoint" />
            <mxPoint x="68" y="310" as="targetPoint" />
          </mxGeometry>
        </mxCell>
        <mxCell id="S8GTPxohOmlDsII6Q4f4-170" value="view feedback()" style="text;html=1;strokeColor=none;fillColor=none;align=center;verticalAlign=middle;whiteSpace=wrap;rounded=0;" parent="1" vertex="1">
          <mxGeometry x="85" y="275" width="60" height="30" as="geometry" />
        </mxCell>
        <mxCell id="S8GTPxohOmlDsII6Q4f4-189" value="" style="edgeStyle=elbowEdgeStyle;fontSize=12;html=1;endArrow=blockThin;endFill=1;rounded=0;entryX=-0.02;entryY=0.132;entryDx=0;entryDy=0;entryPerimeter=0;" parent="1" edge="1">
          <mxGeometry width="160" relative="1" as="geometry">
            <mxPoint x="460.20000000000005" y="345" as="sourcePoint" />
            <mxPoint x="635" y="345.72" as="targetPoint" />
          </mxGeometry>
        </mxCell>
        <mxCell id="S8GTPxohOmlDsII6Q4f4-190" value="send feedback()" style="text;html=1;strokeColor=none;fillColor=none;align=center;verticalAlign=middle;whiteSpace=wrap;rounded=0;" parent="1" vertex="1">
          <mxGeometry x="488.2" y="310" width="60" height="30" as="geometry" />
        </mxCell>
        <mxCell id="S8GTPxohOmlDsII6Q4f4-191" value="" style="edgeStyle=elbowEdgeStyle;fontSize=12;html=1;endArrow=blockThin;endFill=1;rounded=0;" parent="1" edge="1">
          <mxGeometry width="160" relative="1" as="geometry">
            <mxPoint x="650.2" y="345" as="sourcePoint" />
            <mxPoint x="1120" y="345" as="targetPoint" />
          </mxGeometry>
        </mxCell>
        <mxCell id="S8GTPxohOmlDsII6Q4f4-192" value="add feedback()" style="text;html=1;strokeColor=none;fillColor=none;align=center;verticalAlign=middle;whiteSpace=wrap;rounded=0;" parent="1" vertex="1">
          <mxGeometry x="675.2" y="310" width="60" height="30" as="geometry" />
        </mxCell>
        <mxCell id="S8GTPxohOmlDsII6Q4f4-193" value="" style="edgeStyle=elbowEdgeStyle;fontSize=12;html=1;endArrow=blockThin;endFill=1;rounded=0;" parent="1" edge="1">
          <mxGeometry width="160" relative="1" as="geometry">
            <mxPoint x="290" y="344.20000000000005" as="sourcePoint" />
            <mxPoint x="450" y="345" as="targetPoint" />
          </mxGeometry>
        </mxCell>
        <mxCell id="S8GTPxohOmlDsII6Q4f4-194" value="create feedback()" style="text;html=1;strokeColor=none;fillColor=none;align=center;verticalAlign=middle;whiteSpace=wrap;rounded=0;" parent="1" vertex="1">
          <mxGeometry x="315" y="310" width="60" height="30" as="geometry" />
        </mxCell>
        <mxCell id="S8GTPxohOmlDsII6Q4f4-195" value="" style="endArrow=classic;html=1;rounded=0;entryX=1.26;entryY=0.22;entryDx=0;entryDy=0;entryPerimeter=0;" parent="1" edge="1">
          <mxGeometry width="50" height="50" relative="1" as="geometry">
            <mxPoint x="632.4000000000001" y="396" as="sourcePoint" />
            <mxPoint x="460.00000000000006" y="396.20000000000005" as="targetPoint" />
          </mxGeometry>
        </mxCell>
        <mxCell id="S8GTPxohOmlDsII6Q4f4-196" value="return feedback()" style="text;html=1;strokeColor=none;fillColor=none;align=center;verticalAlign=middle;whiteSpace=wrap;rounded=0;" parent="1" vertex="1">
          <mxGeometry x="548" y="367" width="60" height="30" as="geometry" />
        </mxCell>
        <mxCell id="S8GTPxohOmlDsII6Q4f4-197" value="" style="endArrow=classic;html=1;rounded=0;" parent="1" edge="1">
          <mxGeometry width="50" height="50" relative="1" as="geometry">
            <mxPoint x="1124.8" y="398" as="sourcePoint" />
            <mxPoint x="649.8" y="397" as="targetPoint" />
          </mxGeometry>
        </mxCell>
        <mxCell id="S8GTPxohOmlDsII6Q4f4-198" value="get feedback()" style="text;html=1;strokeColor=none;fillColor=none;align=center;verticalAlign=middle;whiteSpace=wrap;rounded=0;" parent="1" vertex="1">
          <mxGeometry x="1042.3999999999999" y="367" width="60" height="30" as="geometry" />
        </mxCell>
        <mxCell id="S8GTPxohOmlDsII6Q4f4-199" value="" style="endArrow=classic;html=1;rounded=0;" parent="1" edge="1">
          <mxGeometry width="50" height="50" relative="1" as="geometry">
            <mxPoint x="449.8" y="397" as="sourcePoint" />
            <mxPoint x="299.8" y="396" as="targetPoint" />
          </mxGeometry>
        </mxCell>
        <mxCell id="S8GTPxohOmlDsII6Q4f4-200" value="view feedback()" style="text;html=1;strokeColor=none;fillColor=none;align=center;verticalAlign=middle;whiteSpace=wrap;rounded=0;" parent="1" vertex="1">
          <mxGeometry x="314.8" y="356" width="60" height="30" as="geometry" />
        </mxCell>
        <mxCell id="S8GTPxohOmlDsII6Q4f4-201" value="" style="edgeStyle=elbowEdgeStyle;fontSize=12;html=1;endArrow=blockThin;endFill=1;rounded=0;entryX=-0.4;entryY=0.13;entryDx=0;entryDy=0;entryPerimeter=0;" parent="1" edge="1">
          <mxGeometry width="160" relative="1" as="geometry">
            <mxPoint x="60.1" y="695" as="sourcePoint" />
            <mxPoint x="446.1" y="694.8" as="targetPoint" />
          </mxGeometry>
        </mxCell>
        <mxCell id="S8GTPxohOmlDsII6Q4f4-202" value="create chatRoom()" style="text;html=1;strokeColor=none;fillColor=none;align=center;verticalAlign=middle;whiteSpace=wrap;rounded=0;" parent="1" vertex="1">
          <mxGeometry x="85.1" y="665" width="60" height="30" as="geometry" />
        </mxCell>
        <mxCell id="S8GTPxohOmlDsII6Q4f4-203" value="" style="edgeStyle=elbowEdgeStyle;fontSize=12;html=1;endArrow=blockThin;endFill=1;rounded=0;entryX=-0.02;entryY=0.132;entryDx=0;entryDy=0;entryPerimeter=0;" parent="1" edge="1">
          <mxGeometry width="160" relative="1" as="geometry">
            <mxPoint x="460.1" y="695" as="sourcePoint" />
            <mxPoint x="634.9" y="695.72" as="targetPoint" />
          </mxGeometry>
        </mxCell>
        <mxCell id="S8GTPxohOmlDsII6Q4f4-204" value="send chatRoom()" style="text;html=1;strokeColor=none;fillColor=none;align=center;verticalAlign=middle;whiteSpace=wrap;rounded=0;" parent="1" vertex="1">
          <mxGeometry x="488.1" y="660" width="60" height="30" as="geometry" />
        </mxCell>
        <mxCell id="S8GTPxohOmlDsII6Q4f4-205" value="" style="edgeStyle=elbowEdgeStyle;fontSize=12;html=1;endArrow=blockThin;endFill=1;rounded=0;entryX=-0.02;entryY=0.132;entryDx=0;entryDy=0;entryPerimeter=0;" parent="1" edge="1">
          <mxGeometry width="160" relative="1" as="geometry">
            <mxPoint x="645.1" y="695" as="sourcePoint" />
            <mxPoint x="819.9" y="695.72" as="targetPoint" />
          </mxGeometry>
        </mxCell>
        <mxCell id="S8GTPxohOmlDsII6Q4f4-206" value="add chatRoom()" style="text;html=1;strokeColor=none;fillColor=none;align=center;verticalAlign=middle;whiteSpace=wrap;rounded=0;" parent="1" vertex="1">
          <mxGeometry x="670.1" y="660" width="60" height="30" as="geometry" />
        </mxCell>
        <mxCell id="S8GTPxohOmlDsII6Q4f4-207" value="" style="endArrow=classic;html=1;rounded=0;entryX=1.26;entryY=0.22;entryDx=0;entryDy=0;entryPerimeter=0;" parent="1" edge="1">
          <mxGeometry width="50" height="50" relative="1" as="geometry">
            <mxPoint x="820.1" y="736" as="sourcePoint" />
            <mxPoint x="647.6999999999999" y="736.2" as="targetPoint" />
          </mxGeometry>
        </mxCell>
        <mxCell id="S8GTPxohOmlDsII6Q4f4-208" value="get chatRoom()" style="text;html=1;strokeColor=none;fillColor=none;align=center;verticalAlign=middle;whiteSpace=wrap;rounded=0;" parent="1" vertex="1">
          <mxGeometry x="737.7" y="705" width="60" height="30" as="geometry" />
        </mxCell>
        <mxCell id="S8GTPxohOmlDsII6Q4f4-209" value="" style="endArrow=classic;html=1;rounded=0;entryX=1.26;entryY=0.22;entryDx=0;entryDy=0;entryPerimeter=0;" parent="1" edge="1">
          <mxGeometry width="50" height="50" relative="1" as="geometry">
            <mxPoint x="630.1" y="734" as="sourcePoint" />
            <mxPoint x="457.69999999999993" y="734.2" as="targetPoint" />
          </mxGeometry>
        </mxCell>
        <mxCell id="S8GTPxohOmlDsII6Q4f4-210" value="return chatRoom()" style="text;html=1;strokeColor=none;fillColor=none;align=center;verticalAlign=middle;whiteSpace=wrap;rounded=0;" parent="1" vertex="1">
          <mxGeometry x="545.7" y="705" width="60" height="30" as="geometry" />
        </mxCell>
        <mxCell id="S8GTPxohOmlDsII6Q4f4-211" value="" style="endArrow=classic;html=1;rounded=0;" parent="1" edge="1">
          <mxGeometry width="50" height="50" relative="1" as="geometry">
            <mxPoint x="447.69999999999993" y="736" as="sourcePoint" />
            <mxPoint x="68.1" y="740" as="targetPoint" />
          </mxGeometry>
        </mxCell>
        <mxCell id="S8GTPxohOmlDsII6Q4f4-212" value="view chatRoom()" style="text;html=1;strokeColor=none;fillColor=none;align=center;verticalAlign=middle;whiteSpace=wrap;rounded=0;" parent="1" vertex="1">
          <mxGeometry x="85.1" y="705" width="60" height="30" as="geometry" />
        </mxCell>
        <mxCell id="S8GTPxohOmlDsII6Q4f4-213" value="" style="edgeStyle=elbowEdgeStyle;fontSize=12;html=1;endArrow=blockThin;endFill=1;rounded=0;entryX=-0.02;entryY=0.132;entryDx=0;entryDy=0;entryPerimeter=0;" parent="1" edge="1">
          <mxGeometry width="160" relative="1" as="geometry">
            <mxPoint x="460.30000000000007" y="779" as="sourcePoint" />
            <mxPoint x="635.1" y="779.72" as="targetPoint" />
          </mxGeometry>
        </mxCell>
        <mxCell id="S8GTPxohOmlDsII6Q4f4-214" value="send chatRoom()" style="text;html=1;strokeColor=none;fillColor=none;align=center;verticalAlign=middle;whiteSpace=wrap;rounded=0;" parent="1" vertex="1">
          <mxGeometry x="488.3" y="744" width="60" height="30" as="geometry" />
        </mxCell>
        <mxCell id="S8GTPxohOmlDsII6Q4f4-215" value="" style="edgeStyle=elbowEdgeStyle;fontSize=12;html=1;endArrow=blockThin;endFill=1;rounded=0;" parent="1" edge="1">
          <mxGeometry width="160" relative="1" as="geometry">
            <mxPoint x="180.1" y="775.7" as="sourcePoint" />
            <mxPoint x="440.1" y="775.5" as="targetPoint" />
          </mxGeometry>
        </mxCell>
        <mxCell id="S8GTPxohOmlDsII6Q4f4-216" value="create chatRoom()" style="text;html=1;strokeColor=none;fillColor=none;align=center;verticalAlign=middle;whiteSpace=wrap;rounded=0;" parent="1" vertex="1">
          <mxGeometry x="205.1" y="741.5" width="60" height="30" as="geometry" />
        </mxCell>
        <mxCell id="S8GTPxohOmlDsII6Q4f4-217" value="" style="edgeStyle=elbowEdgeStyle;fontSize=12;html=1;endArrow=blockThin;endFill=1;rounded=0;" parent="1" edge="1">
          <mxGeometry width="160" relative="1" as="geometry">
            <mxPoint x="650.3000000000001" y="779" as="sourcePoint" />
            <mxPoint x="970.1" y="779" as="targetPoint" />
          </mxGeometry>
        </mxCell>
        <mxCell id="S8GTPxohOmlDsII6Q4f4-218" value="add chatRoom()" style="text;html=1;strokeColor=none;fillColor=none;align=center;verticalAlign=middle;whiteSpace=wrap;rounded=0;" parent="1" vertex="1">
          <mxGeometry x="675.3000000000001" y="744" width="60" height="30" as="geometry" />
        </mxCell>
        <mxCell id="S8GTPxohOmlDsII6Q4f4-219" value="" style="endArrow=classic;html=1;rounded=0;entryX=1.26;entryY=0.22;entryDx=0;entryDy=0;entryPerimeter=0;" parent="1" edge="1">
          <mxGeometry width="50" height="50" relative="1" as="geometry">
            <mxPoint x="632.7000000000002" y="830" as="sourcePoint" />
            <mxPoint x="460.30000000000007" y="830.2" as="targetPoint" />
          </mxGeometry>
        </mxCell>
        <mxCell id="S8GTPxohOmlDsII6Q4f4-220" value="return chatRoom()" style="text;html=1;strokeColor=none;fillColor=none;align=center;verticalAlign=middle;whiteSpace=wrap;rounded=0;" parent="1" vertex="1">
          <mxGeometry x="548.3000000000001" y="801" width="60" height="30" as="geometry" />
        </mxCell>
        <mxCell id="S8GTPxohOmlDsII6Q4f4-221" value="" style="endArrow=classic;html=1;rounded=0;" parent="1" edge="1">
          <mxGeometry width="50" height="50" relative="1" as="geometry">
            <mxPoint x="975.1" y="832" as="sourcePoint" />
            <mxPoint x="650.1" y="832" as="targetPoint" />
          </mxGeometry>
        </mxCell>
        <mxCell id="S8GTPxohOmlDsII6Q4f4-222" value="get chatRoom()" style="text;html=1;strokeColor=none;fillColor=none;align=center;verticalAlign=middle;whiteSpace=wrap;rounded=0;" parent="1" vertex="1">
          <mxGeometry x="892.7" y="801" width="60" height="30" as="geometry" />
        </mxCell>
        <mxCell id="S8GTPxohOmlDsII6Q4f4-223" value="" style="endArrow=classic;html=1;rounded=0;" parent="1" edge="1">
          <mxGeometry width="50" height="50" relative="1" as="geometry">
            <mxPoint x="450.1" y="830" as="sourcePoint" />
            <mxPoint x="190.1" y="830" as="targetPoint" />
          </mxGeometry>
        </mxCell>
        <mxCell id="S8GTPxohOmlDsII6Q4f4-224" value="view chatRoom()" style="text;html=1;strokeColor=none;fillColor=none;align=center;verticalAlign=middle;whiteSpace=wrap;rounded=0;" parent="1" vertex="1">
          <mxGeometry x="205.1" y="790" width="60" height="30" as="geometry" />
        </mxCell>
        <mxCell id="S8GTPxohOmlDsII6Q4f4-225" value="" style="edgeStyle=elbowEdgeStyle;fontSize=12;html=1;endArrow=blockThin;endFill=1;rounded=0;entryX=-0.02;entryY=0.132;entryDx=0;entryDy=0;entryPerimeter=0;" parent="1" edge="1">
          <mxGeometry width="160" relative="1" as="geometry">
            <mxPoint x="460.5000000000001" y="879" as="sourcePoint" />
            <mxPoint x="635.3000000000001" y="879.72" as="targetPoint" />
          </mxGeometry>
        </mxCell>
        <mxCell id="S8GTPxohOmlDsII6Q4f4-226" value="send chatRoom()" style="text;html=1;strokeColor=none;fillColor=none;align=center;verticalAlign=middle;whiteSpace=wrap;rounded=0;" parent="1" vertex="1">
          <mxGeometry x="488.5" y="844" width="60" height="30" as="geometry" />
        </mxCell>
        <mxCell id="S8GTPxohOmlDsII6Q4f4-227" value="" style="edgeStyle=elbowEdgeStyle;fontSize=12;html=1;endArrow=blockThin;endFill=1;rounded=0;" parent="1" edge="1">
          <mxGeometry width="160" relative="1" as="geometry">
            <mxPoint x="650.5000000000001" y="879" as="sourcePoint" />
            <mxPoint x="1120.2999999999997" y="879" as="targetPoint" />
          </mxGeometry>
        </mxCell>
        <mxCell id="S8GTPxohOmlDsII6Q4f4-228" value="add chatRoom()" style="text;html=1;strokeColor=none;fillColor=none;align=center;verticalAlign=middle;whiteSpace=wrap;rounded=0;" parent="1" vertex="1">
          <mxGeometry x="675.5000000000001" y="844" width="60" height="30" as="geometry" />
        </mxCell>
        <mxCell id="S8GTPxohOmlDsII6Q4f4-229" value="" style="edgeStyle=elbowEdgeStyle;fontSize=12;html=1;endArrow=blockThin;endFill=1;rounded=0;" parent="1" edge="1">
          <mxGeometry width="160" relative="1" as="geometry">
            <mxPoint x="290.30000000000007" y="878.2" as="sourcePoint" />
            <mxPoint x="450.30000000000007" y="879" as="targetPoint" />
          </mxGeometry>
        </mxCell>
        <mxCell id="S8GTPxohOmlDsII6Q4f4-230" value="create chatRoom()" style="text;html=1;strokeColor=none;fillColor=none;align=center;verticalAlign=middle;whiteSpace=wrap;rounded=0;" parent="1" vertex="1">
          <mxGeometry x="315.3" y="844" width="60" height="30" as="geometry" />
        </mxCell>
        <mxCell id="S8GTPxohOmlDsII6Q4f4-231" value="" style="endArrow=classic;html=1;rounded=0;entryX=1.26;entryY=0.22;entryDx=0;entryDy=0;entryPerimeter=0;" parent="1" edge="1">
          <mxGeometry width="50" height="50" relative="1" as="geometry">
            <mxPoint x="632.7000000000002" y="930" as="sourcePoint" />
            <mxPoint x="460.30000000000007" y="930.2" as="targetPoint" />
          </mxGeometry>
        </mxCell>
        <mxCell id="S8GTPxohOmlDsII6Q4f4-232" value="return chatRoom()" style="text;html=1;strokeColor=none;fillColor=none;align=center;verticalAlign=middle;whiteSpace=wrap;rounded=0;" parent="1" vertex="1">
          <mxGeometry x="548.3000000000001" y="901" width="60" height="30" as="geometry" />
        </mxCell>
        <mxCell id="S8GTPxohOmlDsII6Q4f4-233" value="" style="endArrow=classic;html=1;rounded=0;" parent="1" edge="1">
          <mxGeometry width="50" height="50" relative="1" as="geometry">
            <mxPoint x="1125.1" y="932" as="sourcePoint" />
            <mxPoint x="650.1" y="931" as="targetPoint" />
          </mxGeometry>
        </mxCell>
        <mxCell id="S8GTPxohOmlDsII6Q4f4-234" value="get chatRoom()" style="text;html=1;strokeColor=none;fillColor=none;align=center;verticalAlign=middle;whiteSpace=wrap;rounded=0;" parent="1" vertex="1">
          <mxGeometry x="1042.6999999999998" y="901" width="60" height="30" as="geometry" />
        </mxCell>
        <mxCell id="S8GTPxohOmlDsII6Q4f4-235" value="" style="endArrow=classic;html=1;rounded=0;" parent="1" edge="1">
          <mxGeometry width="50" height="50" relative="1" as="geometry">
            <mxPoint x="450.1" y="931" as="sourcePoint" />
            <mxPoint x="300.1" y="930" as="targetPoint" />
          </mxGeometry>
        </mxCell>
        <mxCell id="S8GTPxohOmlDsII6Q4f4-236" value="view chatRoom()" style="text;html=1;strokeColor=none;fillColor=none;align=center;verticalAlign=middle;whiteSpace=wrap;rounded=0;" parent="1" vertex="1">
          <mxGeometry x="315.1" y="890" width="60" height="30" as="geometry" />
        </mxCell>
        <mxCell id="S8GTPxohOmlDsII6Q4f4-237" value="" style="endArrow=none;dashed=1;html=1;dashPattern=1 3;strokeWidth=2;rounded=0;" parent="1" edge="1">
          <mxGeometry width="50" height="50" relative="1" as="geometry">
            <mxPoint x="55.5" y="1260" as="sourcePoint" />
            <mxPoint x="55.5" y="1200" as="targetPoint" />
          </mxGeometry>
        </mxCell>
        <mxCell id="S8GTPxohOmlDsII6Q4f4-238" value="" style="shape=umlDestroy;whiteSpace=wrap;html=1;strokeWidth=3;" parent="1" vertex="1">
          <mxGeometry x="40" y="1260" width="30" height="30" as="geometry" />
        </mxCell>
        <mxCell id="S8GTPxohOmlDsII6Q4f4-239" value="" style="endArrow=none;dashed=1;html=1;dashPattern=1 3;strokeWidth=2;rounded=0;" parent="1" edge="1">
          <mxGeometry width="50" height="50" relative="1" as="geometry">
            <mxPoint x="175.5" y="1260" as="sourcePoint" />
            <mxPoint x="175.5" y="1200" as="targetPoint" />
          </mxGeometry>
        </mxCell>
        <mxCell id="S8GTPxohOmlDsII6Q4f4-240" value="" style="shape=umlDestroy;whiteSpace=wrap;html=1;strokeWidth=3;" parent="1" vertex="1">
          <mxGeometry x="160" y="1260" width="30" height="30" as="geometry" />
        </mxCell>
        <mxCell id="S8GTPxohOmlDsII6Q4f4-241" value="" style="endArrow=none;dashed=1;html=1;dashPattern=1 3;strokeWidth=2;rounded=0;" parent="1" edge="1">
          <mxGeometry width="50" height="50" relative="1" as="geometry">
            <mxPoint x="285.5" y="1260" as="sourcePoint" />
            <mxPoint x="285.5" y="1200" as="targetPoint" />
          </mxGeometry>
        </mxCell>
        <mxCell id="S8GTPxohOmlDsII6Q4f4-242" value="" style="shape=umlDestroy;whiteSpace=wrap;html=1;strokeWidth=3;" parent="1" vertex="1">
          <mxGeometry x="270" y="1260" width="30" height="30" as="geometry" />
        </mxCell>
        <mxCell id="S8GTPxohOmlDsII6Q4f4-243" value="" style="endArrow=none;dashed=1;html=1;dashPattern=1 3;strokeWidth=2;rounded=0;" parent="1" edge="1">
          <mxGeometry width="50" height="50" relative="1" as="geometry">
            <mxPoint x="455.5" y="1260" as="sourcePoint" />
            <mxPoint x="455.5" y="1200" as="targetPoint" />
          </mxGeometry>
        </mxCell>
        <mxCell id="S8GTPxohOmlDsII6Q4f4-244" value="" style="shape=umlDestroy;whiteSpace=wrap;html=1;strokeWidth=3;" parent="1" vertex="1">
          <mxGeometry x="440" y="1260" width="30" height="30" as="geometry" />
        </mxCell>
        <mxCell id="S8GTPxohOmlDsII6Q4f4-245" value="" style="endArrow=none;dashed=1;html=1;dashPattern=1 3;strokeWidth=2;rounded=0;" parent="1" edge="1">
          <mxGeometry width="50" height="50" relative="1" as="geometry">
            <mxPoint x="640.5" y="1260" as="sourcePoint" />
            <mxPoint x="640.5" y="1200" as="targetPoint" />
          </mxGeometry>
        </mxCell>
        <mxCell id="S8GTPxohOmlDsII6Q4f4-246" value="" style="shape=umlDestroy;whiteSpace=wrap;html=1;strokeWidth=3;" parent="1" vertex="1">
          <mxGeometry x="625" y="1260" width="30" height="30" as="geometry" />
        </mxCell>
        <mxCell id="S8GTPxohOmlDsII6Q4f4-247" value="" style="endArrow=none;dashed=1;html=1;dashPattern=1 3;strokeWidth=2;rounded=0;" parent="1" edge="1">
          <mxGeometry width="50" height="50" relative="1" as="geometry">
            <mxPoint x="830.5" y="1260" as="sourcePoint" />
            <mxPoint x="830.5" y="1200" as="targetPoint" />
          </mxGeometry>
        </mxCell>
        <mxCell id="S8GTPxohOmlDsII6Q4f4-248" value="" style="shape=umlDestroy;whiteSpace=wrap;html=1;strokeWidth=3;" parent="1" vertex="1">
          <mxGeometry x="815" y="1260" width="30" height="30" as="geometry" />
        </mxCell>
        <mxCell id="S8GTPxohOmlDsII6Q4f4-249" value="" style="endArrow=none;dashed=1;html=1;dashPattern=1 3;strokeWidth=2;rounded=0;" parent="1" edge="1">
          <mxGeometry width="50" height="50" relative="1" as="geometry">
            <mxPoint x="980.5" y="1260" as="sourcePoint" />
            <mxPoint x="980.5" y="1200" as="targetPoint" />
          </mxGeometry>
        </mxCell>
        <mxCell id="S8GTPxohOmlDsII6Q4f4-250" value="" style="shape=umlDestroy;whiteSpace=wrap;html=1;strokeWidth=3;" parent="1" vertex="1">
          <mxGeometry x="965" y="1260" width="30" height="30" as="geometry" />
        </mxCell>
        <mxCell id="S8GTPxohOmlDsII6Q4f4-251" value="" style="endArrow=none;dashed=1;html=1;dashPattern=1 3;strokeWidth=2;rounded=0;" parent="1" edge="1">
          <mxGeometry width="50" height="50" relative="1" as="geometry">
            <mxPoint x="1130.5" y="1260" as="sourcePoint" />
            <mxPoint x="1130.5" y="1200" as="targetPoint" />
          </mxGeometry>
        </mxCell>
        <mxCell id="S8GTPxohOmlDsII6Q4f4-252" value="" style="shape=umlDestroy;whiteSpace=wrap;html=1;strokeWidth=3;" parent="1" vertex="1">
          <mxGeometry x="1115" y="1260" width="30" height="30" as="geometry" />
        </mxCell>
        <mxCell id="u3_mMLbTmi0k_PHvUhx6-2" value="" style="edgeStyle=elbowEdgeStyle;fontSize=12;html=1;endArrow=blockThin;endFill=1;rounded=0;entryX=-0.02;entryY=0.132;entryDx=0;entryDy=0;entryPerimeter=0;" edge="1" parent="1">
          <mxGeometry width="160" relative="1" as="geometry">
            <mxPoint x="460.20000000000005" y="1047" as="sourcePoint" />
            <mxPoint x="635" y="1047.72" as="targetPoint" />
          </mxGeometry>
        </mxCell>
        <mxCell id="u3_mMLbTmi0k_PHvUhx6-3" value="send updateDelivery()" style="text;html=1;strokeColor=none;fillColor=none;align=center;verticalAlign=middle;whiteSpace=wrap;rounded=0;" vertex="1" parent="1">
          <mxGeometry x="488.2" y="1012" width="60" height="30" as="geometry" />
        </mxCell>
        <mxCell id="u3_mMLbTmi0k_PHvUhx6-4" value="" style="edgeStyle=elbowEdgeStyle;fontSize=12;html=1;endArrow=blockThin;endFill=1;rounded=0;" edge="1" parent="1">
          <mxGeometry width="160" relative="1" as="geometry">
            <mxPoint x="650.2" y="1047" as="sourcePoint" />
            <mxPoint x="1120" y="1047" as="targetPoint" />
          </mxGeometry>
        </mxCell>
        <mxCell id="u3_mMLbTmi0k_PHvUhx6-5" value="add updateDelivery()" style="text;html=1;strokeColor=none;fillColor=none;align=center;verticalAlign=middle;whiteSpace=wrap;rounded=0;" vertex="1" parent="1">
          <mxGeometry x="675.2" y="1012" width="60" height="30" as="geometry" />
        </mxCell>
        <mxCell id="u3_mMLbTmi0k_PHvUhx6-6" value="" style="edgeStyle=elbowEdgeStyle;fontSize=12;html=1;endArrow=blockThin;endFill=1;rounded=0;" edge="1" parent="1">
          <mxGeometry width="160" relative="1" as="geometry">
            <mxPoint x="290" y="1046.2" as="sourcePoint" />
            <mxPoint x="450" y="1047" as="targetPoint" />
          </mxGeometry>
        </mxCell>
        <mxCell id="u3_mMLbTmi0k_PHvUhx6-7" value="create updateDelivery()" style="text;html=1;strokeColor=none;fillColor=none;align=center;verticalAlign=middle;whiteSpace=wrap;rounded=0;" vertex="1" parent="1">
          <mxGeometry x="315" y="1012" width="60" height="30" as="geometry" />
        </mxCell>
        <mxCell id="u3_mMLbTmi0k_PHvUhx6-8" value="" style="endArrow=classic;html=1;rounded=0;entryX=1.26;entryY=0.22;entryDx=0;entryDy=0;entryPerimeter=0;" edge="1" parent="1">
          <mxGeometry width="50" height="50" relative="1" as="geometry">
            <mxPoint x="632.4000000000001" y="1098" as="sourcePoint" />
            <mxPoint x="460" y="1098.2" as="targetPoint" />
          </mxGeometry>
        </mxCell>
        <mxCell id="u3_mMLbTmi0k_PHvUhx6-9" value="return updateDelivery()" style="text;html=1;strokeColor=none;fillColor=none;align=center;verticalAlign=middle;whiteSpace=wrap;rounded=0;" vertex="1" parent="1">
          <mxGeometry x="548" y="1069" width="60" height="30" as="geometry" />
        </mxCell>
        <mxCell id="u3_mMLbTmi0k_PHvUhx6-10" value="" style="endArrow=classic;html=1;rounded=0;" edge="1" parent="1">
          <mxGeometry width="50" height="50" relative="1" as="geometry">
            <mxPoint x="1124.8000000000002" y="1100" as="sourcePoint" />
            <mxPoint x="649.8" y="1099" as="targetPoint" />
          </mxGeometry>
        </mxCell>
        <mxCell id="u3_mMLbTmi0k_PHvUhx6-11" value="get updateDelivery()" style="text;html=1;strokeColor=none;fillColor=none;align=center;verticalAlign=middle;whiteSpace=wrap;rounded=0;" vertex="1" parent="1">
          <mxGeometry x="1042.3999999999999" y="1069" width="60" height="30" as="geometry" />
        </mxCell>
        <mxCell id="u3_mMLbTmi0k_PHvUhx6-12" value="" style="endArrow=classic;html=1;rounded=0;" edge="1" parent="1">
          <mxGeometry width="50" height="50" relative="1" as="geometry">
            <mxPoint x="449.79999999999995" y="1099" as="sourcePoint" />
            <mxPoint x="299.79999999999995" y="1098" as="targetPoint" />
          </mxGeometry>
        </mxCell>
        <mxCell id="u3_mMLbTmi0k_PHvUhx6-13" value="view updateDelivery()" style="text;html=1;strokeColor=none;fillColor=none;align=center;verticalAlign=middle;whiteSpace=wrap;rounded=0;" vertex="1" parent="1">
          <mxGeometry x="314.8" y="1058" width="60" height="30" as="geometry" />
        </mxCell>
      </root>
    </mxGraphModel>
  </diagram>
</mxfile>
